<?xml version="1.0" encoding="utf-8"?>
<!-- Generator: Adobe Illustrator 23.0.5, SVG Export Plug-In . SVG Version: 6.00 Build 0)  -->
<svg version="1.1" id="icons" xmlns="http://www.w3.org/2000/svg" xmlns:xlink="http://www.w3.org/1999/xlink" x="0px" y="0px"
	 viewBox="0 0 49.83 54.04" style="enable-background:new 0 0 49.83 54.04;" xml:space="preserve">
<style type="text/css">
	.st0{fill:#424242;}
</style>
<g>
	<path class="st0" d="M48.84,46.91c-0.66-2.16-4.21-3.98-7.64-5.73c-0.9-0.46-1.78-0.91-2.53-1.33c-0.48-0.27-1.09-0.1-1.36,0.38
		c-0.27,0.48-0.1,1.09,0.38,1.36c0.78,0.44,1.67,0.89,2.6,1.37c2.63,1.34,6.22,3.18,6.63,4.53c0.85,2.81,0.9,3.21,0.9,3.97
		c0,0.27-0.05,0.4-0.08,0.43c-0.2,0.19-1.15,0.16-1.79,0.14C45.65,52.01,45.32,52,45,52H5c-0.24,0-0.48,0-0.72,0.01
		c-0.74,0.01-1.76,0.03-2-0.21c-0.06-0.06-0.09-0.19-0.1-0.38c0.08-0.37,0.38-1.7,0.97-3.97c0.45-1.75,4.9-4.28,13.17-7.5
		c0.2-0.07,2.01-0.7,3.01-2.04c0.33-0.44,0.24-1.07-0.2-1.4c-0.44-0.33-1.07-0.24-1.4,0.2c-0.53,0.71-1.66,1.21-2.09,1.36
		c-6.67,2.6-13.6,5.68-14.43,8.88c-0.71,2.76-1,4.12-1.01,4.17c-0.01,0.07-0.02,0.14-0.02,0.21c0,0.8,0.24,1.44,0.71,1.9
		c0.84,0.83,2.1,0.8,3.44,0.78C4.54,54,4.77,54,5,54h40c0.3,0,0.6,0.01,0.89,0.02c0.29,0.01,0.57,0.02,0.85,0.02
		c0.93,0,1.78-0.11,2.4-0.72c0.46-0.44,0.69-1.07,0.69-1.87C49.83,50.41,49.73,49.83,48.84,46.91z"/>
	<path class="st0" d="M9,30h3c0.58,0,1.05-0.18,1.4-0.53C14,28.87,14,28,14,27.15v-0.1c0.16,0.11,0.33,0.2,0.5,0.27
		c0.54,1.35,1.15,2.31,1.8,3.33c0.18,0.29,0.37,0.58,0.55,0.88c0.78,1.28,1.57,2.17,2.42,2.76c0.11,0.09,2.7,2.2,5.68,2.24
		c0.11,0.02,0.29,0.03,0.52,0.03c0.99,0,3.02-0.3,5.47-2.33c0.78-0.6,1.48-1.44,2.22-2.66c0.2-0.32,0.39-0.63,0.59-0.94
		c0.63-0.98,1.27-1.99,1.82-3.35c0.14-0.06,0.28-0.14,0.41-0.23v0.09c0,0.84,0,1.72,0.6,2.32c0.12,0.12,0.25,0.21,0.39,0.28
		c-0.07,2.35-0.65,6.92-2.86,7.7c-0.49-0.34-1.07-0.54-1.71-0.54c-0.23,0-0.47,0.03-0.69,0.08l-4.86,1.16
		c-1.61,0.38-2.61,2-2.22,3.61c0.32,1.36,1.52,2.31,2.92,2.31c0.23,0,0.47-0.03,0.69-0.08l4.86-1.16c1.61-0.38,2.61-2,2.22-3.61
		c-0.01-0.03-0.02-0.06-0.03-0.09c3.09-1.59,3.6-6.83,3.67-9.13H41c1.36,0,3.3-0.98,4.02-2.46c1.31-2.88,1.31-6.19-0.01-9.1
		C44.3,16.98,42.36,16,41,16h-0.02C40.72,7.13,33.66,0,25,0C16.34,0,9.28,7.13,9.02,16H9c-1.36,0-3.3,0.98-4.02,2.46
		c-1.31,2.88-1.31,6.19,0.01,9.1C5.7,29.02,7.64,30,9,30z M32.66,40.89l-4.86,1.16c-0.53,0.12-1.08-0.22-1.2-0.74
		c-0.13-0.54,0.21-1.08,0.74-1.2l4.86-1.16c0.08-0.02,0.15-0.03,0.23-0.03c0.46,0,0.87,0.32,0.98,0.77
		C33.53,40.23,33.2,40.77,32.66,40.89z M35.19,25.06c-0.14,0.26-0.4,0.42-0.5,0.44c-0.36,0.05-0.67,0.3-0.8,0.64
		c-0.52,1.4-1.15,2.38-1.81,3.43c-0.2,0.32-0.41,0.64-0.61,0.97c-0.61,1-1.16,1.67-1.76,2.13c-2.59,2.14-4.41,1.89-4.47,1.88
		c-0.06-0.01-0.13-0.02-0.19-0.02c-2.29,0-4.47-1.76-4.55-1.83c-0.68-0.47-1.29-1.17-1.92-2.21c-0.19-0.32-0.39-0.62-0.58-0.92
		c-0.69-1.09-1.29-2.03-1.8-3.45c-0.13-0.37-0.52-0.63-0.91-0.66c-0.1-0.01-0.36-0.17-0.5-0.43c-0.16-0.3-0.46-0.47-0.78-0.5V21
		c0,0,0,0,0,0c0.54,0,0.96-0.3,0.97-0.85c0-0.03,0.06-3.09,1.43-6.26c1.76-4.09,4.69-6.16,8.82-6.16c9.97,0,10,11.71,10,12.21
		c0,0.55,0.78,0.99,0.78,0.99v3.62C35.67,24.58,35.36,24.75,35.19,25.06z M43.2,19.29c1.07,2.36,1.07,5.06,0.01,7.4
		C42.87,27.39,41.71,28,41,28l-2.97-0.01C38,27.79,38,27.42,38,27.16v-8.31c0-0.26,0-0.64,0.03-0.85H41
		C41.71,18,42.87,18.61,43.2,19.29z M25,2c7.56,0,13.72,6.24,13.98,14H38c-0.46,0-0.85,0.12-1.17,0.34
		c-0.82-4.22-3.4-10.67-11.51-10.67c-8.11,0-10.89,6.7-11.84,10.97c-0.03-0.04-0.06-0.08-0.09-0.11C13.05,16.18,12.58,16,12,16
		h-0.98C11.28,8.24,17.44,2,25,2z M6.79,19.32C7.13,18.61,8.29,18,9,18l2.97,0.01C12,18.21,12,18.58,12,18.84v8.31
		c0,0.26,0,0.64-0.03,0.84H9c-0.71,0-1.87-0.61-2.2-1.29C5.73,24.35,5.73,21.65,6.79,19.32z"/>
</g>
</svg>
