<?xml version="1.0" encoding="utf-8"?>
<!-- Generator: Adobe Illustrator 23.0.5, SVG Export Plug-In . SVG Version: 6.00 Build 0)  -->
<svg version="1.1" id="icons" xmlns="http://www.w3.org/2000/svg" xmlns:xlink="http://www.w3.org/1999/xlink" x="0px" y="0px"
	 viewBox="0 0 54 54" style="enable-background:new 0 0 54 54;" xml:space="preserve">
<style type="text/css">
	.st0{fill:#424242;}
</style>
<g>
	<path class="st0" d="M49,0H5C2.24,0,0,2.24,0,5v33c0,2.76,2.24,5,5,5h44c2.76,0,5-2.24,5-5V5C54,2.24,51.76,0,49,0z M5,2h44
		c1.65,0,3,1.35,3,3v26H2V5C2,3.35,3.35,2,5,2z M49,41H5c-1.65,0-3-1.35-3-3v-5h50v5C52,39.65,50.65,41,49,41z"/>
	<path class="st0" d="M35,47.65V45h-2v3c0,0.23,0.08,0.45,0.22,0.63l2.7,3.38H18.08l2.7-3.38C20.92,48.45,21,48.23,21,48v-3h-2v2.65
		l-2.53,3.16c-0.58,0.72-0.73,1.51-0.42,2.16C16.37,53.63,17.08,54,18,54h18c0.92,0,1.63-0.37,1.95-1.03
		c0.31-0.65,0.16-1.44-0.42-2.16L35,47.65z"/>
</g>
</svg>
