<?xml version="1.0" encoding="utf-8"?>
<!-- Generator: Adobe Illustrator 23.0.5, SVG Export Plug-In . SVG Version: 6.00 Build 0)  -->
<svg version="1.1" id="icons" xmlns="http://www.w3.org/2000/svg" xmlns:xlink="http://www.w3.org/1999/xlink" x="0px" y="0px"
	 viewBox="0 0 54 42" style="enable-background:new 0 0 54 42;" xml:space="preserve">
<style type="text/css">
	.st0{fill:#424242;}
</style>
<g>
	<path class="st0" d="M49,0H5C2.24,0,0,2.24,0,5v32c0,2.76,2.24,5,5,5h44c2.76,0,5-2.24,5-5V5C54,2.24,51.76,0,49,0z M52,37
		c0,1.65-1.35,3-3,3H5c-1.65,0-3-1.35-3-3V5c0-1.65,1.35-3,3-3h44c1.65,0,3,1.35,3,3V37z"/>
	<path class="st0" d="M48.35,4.24L29.37,20.63c-1.29,1.11-3.46,1.11-4.75,0L5.65,4.24c-0.42-0.36-1.05-0.32-1.41,0.1
		C3.88,4.76,3.93,5.4,4.35,5.76l18.97,16.39c1.01,0.88,2.35,1.31,3.68,1.31s2.67-0.44,3.68-1.31L49.65,5.76
		c0.42-0.36,0.46-0.99,0.1-1.41C49.39,3.93,48.76,3.88,48.35,4.24z"/>
</g>
</svg>
