<?xml version="1.0" encoding="utf-8"?>
<!-- Generator: Adobe Illustrator 23.0.5, SVG Export Plug-In . SVG Version: 6.00 Build 0)  -->
<svg version="1.1" id="icons" xmlns="http://www.w3.org/2000/svg" xmlns:xlink="http://www.w3.org/1999/xlink" x="0px" y="0px"
	 viewBox="0 0 46.18 54" style="enable-background:new 0 0 46.18 54;" xml:space="preserve">
<style type="text/css">
	.st0{fill:#424242;}
</style>
<path class="st0" d="M39.94,26.11c-0.39-0.58-0.39-1.64,0-2.22l5.78-8.67c0.5-0.75,0.59-1.56,0.25-2.2C45.62,12.37,44.91,12,44,12
	H32c-0.55,0-1,0.45-1,1s0.45,1,1,1h12c0.05,0,0.09,0,0.12,0.01c-0.02,0.03-0.04,0.06-0.06,0.1l-5.78,8.67
	c-0.83,1.24-0.83,3.19,0,4.44l5.78,8.67c0.03,0.04,0.05,0.07,0.06,0.1C44.09,36,44.05,36,44,36H23l4-3c1.14-0.85,2-2.57,2-4V6
	c0-1.65-1.35-3-3-3H2V1c0-0.55-0.45-1-1-1C0.45,0,0,0.45,0,1v52c0,0.55,0.45,1,1,1c0.55,0,1-0.45,1-1V31h20c0.55,0,1-0.45,1-1
	s-0.45-1-1-1H2V5h24c0.55,0,1,0.45,1,1v23c0,0.79-0.57,1.93-1.2,2.4L21,35c-1.08,0.81-1.02,1.58-0.89,1.96
	C20.24,37.35,20.66,38,22,38h22c0.91,0,1.62-0.37,1.97-1.02c0.35-0.65,0.26-1.45-0.25-2.2L39.94,26.11z"/>
</svg>
