<?xml version="1.0" encoding="utf-8"?>
<!-- Generator: Adobe Illustrator 23.0.5, SVG Export Plug-In . SVG Version: 6.00 Build 0)  -->
<svg version="1.1" id="Isolation_Mode" xmlns="http://www.w3.org/2000/svg" xmlns:xlink="http://www.w3.org/1999/xlink" x="0px"
	 y="0px" viewBox="0 0 26.88 26.88" style="enable-background:new 0 0 26.88 26.88;" xml:space="preserve">
<style type="text/css">
	.st0{fill:#424242;}
</style>
<path class="st0" d="M26.21,0H0.67C0.3,0,0,0.3,0,0.67v25.53c0,0.37,0.3,0.67,0.67,0.67h25.53c0.37,0,0.68-0.3,0.68-0.67V0.67
	C26.88,0.3,26.58,0,26.21,0z M25.53,25.53H1.6l4.37-13.37l4.34,7.06c0.2,0.32,0.61,0.42,0.93,0.22c0.08-0.05,0.15-0.11,0.2-0.19
	L18.9,10l1.31,1.09c0.09,0.09,0.22,0.16,0.36,0.18c0.37,0.06,0.71-0.18,0.78-0.55l0.43-2.46l0.43-2.46
	c0.02-0.12,0.01-0.23-0.03-0.35c-0.13-0.35-0.52-0.53-0.86-0.4l-2.35,0.86L16.6,6.77v0c-0.11,0.04-0.21,0.11-0.29,0.2
	c-0.24,0.29-0.2,0.71,0.09,0.95l1.46,1.21l-6.9,8.57l-4.61-7.48l0,0c-0.08-0.13-0.21-0.24-0.37-0.29C5.64,9.81,5.26,10,5.14,10.36
	L1.35,21.97V1.35h24.18V25.53z M19.19,8.49l-0.15-0.12C19.03,8.35,19.01,8.34,19,8.33l-0.84-0.7l1.25-0.46l1.25-0.46l-0.23,1.31
	l-0.23,1.32l-0.95-0.79c-0.01-0.01-0.02-0.02-0.03-0.03h0L19.19,8.49z"/>
</svg>
