<?xml version="1.0" encoding="utf-8"?>
<!-- Generator: Adobe Illustrator 23.0.5, SVG Export Plug-In . SVG Version: 6.00 Build 0)  -->
<svg version="1.1" id="icons" xmlns="http://www.w3.org/2000/svg" xmlns:xlink="http://www.w3.org/1999/xlink" x="0px" y="0px"
	 viewBox="0 0 52 54" style="enable-background:new 0 0 52 54;" xml:space="preserve">
<style type="text/css">
	.st0{fill:#424242;}
</style>
<g>
	<path class="st0" d="M25.25,41.67C25.44,41.88,25.72,42,26,42c0.29,0.02,0.56-0.12,0.75-0.34c0.34-0.39,8.48-9.7,12.97-19.99
		c0.99-2.06,1.49-4.25,1.49-6.5C41.2,6.8,34.36,0,25.95,0c-8.41,0-15.26,6.8-15.26,15.17c0,2.29,0.49,4.48,1.45,6.47
		C16.65,31.96,24.9,41.27,25.25,41.67z M25.95,2C33.26,2,39.2,7.91,39.2,15.17c0,1.95-0.43,3.85-1.31,5.67
		c-3.6,8.24-9.78,16.05-11.9,18.62c-2.15-2.56-8.42-10.38-12.03-18.65c-0.84-1.76-1.27-3.65-1.27-5.64C12.69,7.91,18.64,2,25.95,2z"
		/>
	<path class="st0" d="M25.95,22.23c3.99,0,7.24-3.25,7.24-7.24c0-3.99-3.25-7.24-7.24-7.24c-3.99,0-7.24,3.25-7.24,7.24
		C18.71,18.99,21.96,22.23,25.95,22.23z M25.95,9.76c2.89,0,5.24,2.35,5.24,5.24s-2.35,5.24-5.24,5.24s-5.24-2.35-5.24-5.24
		S23.06,9.76,25.95,9.76z"/>
	<path class="st0" d="M51.97,52.75l-6-23c-0.08-0.31-0.3-0.56-0.6-0.68l-5-2l-0.74,1.86l4.53,1.81l5.32,20.38l-10.03-5.01
		c-0.27-0.14-0.59-0.14-0.87-0.01L26,51.9l-12.58-5.81c-0.27-0.13-0.59-0.12-0.87,0.01L2.52,51.12l5.32-20.38l4.53-1.81l-0.74-1.86
		l-5,2c-0.29,0.12-0.52,0.37-0.6,0.68l-6,23c-0.1,0.38,0.03,0.78,0.34,1.03c0.31,0.25,0.73,0.29,1.08,0.12l11.57-5.79l12.56,5.8
		c0.27,0.12,0.57,0.12,0.84,0l12.56-5.8l11.57,5.79C50.69,53.97,50.85,54,51,54c0.22,0,0.45-0.08,0.63-0.22
		C51.93,53.53,52.07,53.13,51.97,52.75z"/>
</g>
</svg>
